PathFileType  4	(X/Y/Z) C:\Users\antoi\Documents\MyRepositories\mobilecap\ResultsAnalysis
DataRate	CameraRate	NumFrames	NumMarkers	Units	OrigDataRate	OrigDataStartFrame	OrigNumFrames
100.0	100.0	4	55	mm	100.0	526	601
Frame#	Time	r_knee			r_shank_antsup			r_ankle			r_calc			r_5meta			r_toe			L_knee			L_shank_antsup			L_ankle			L_calc			L_5meta			L_toe			r_mknee			r_mankle			L_mknee			L_mankle			r_sh2			r_sh3			r_sh4			L_sh2			L_sh3			r_thigh1			r_thigh2			r_thigh3			r_thigh4			r_thigh5			L_thigh1			L_thigh2			L_thigh3			L_thigh4			r.ASIS			r.PSIS			L.ASIS			L.PSIS			C7			R_Shoulder			L_Shoulder			R_Sternum			L_Sternum			R_humerus			R_elbow_med			R_elbow_lat			R_forearm			R_wrist_radius			R_wrist_ulna			L_humerus			L_elbow_med			L_elbow_lat			L_forearm			L_wrist_radius			L_wrist_ulna			R_HJC			L_HJC			R_HJC_reg			L_HJC_reg			
		X1	Y1	Z1	X2	Y2	Z2	X3	Y3	Z3	X4	Y4	Z4	X5	Y5	Z5	X6	Y6	Z6	X7	Y7	Z7	X8	Y8	Z8	X9	Y9	Z9	X10	Y10	Z10	X11	Y11	Z11	X12	Y12	Z12	X13	Y13	Z13	X14	Y14	Z14	X15	Y15	Z15	X16	Y16	Z16	X17	Y17	Z17	X18	Y18	Z18	X19	Y19	Z19	X20	Y20	Z20	X21	Y21	Z21	X22	Y22	Z22	X23	Y23	Z23	X24	Y24	Z24	X25	Y25	Z25	X26	Y26	Z26	X27	Y27	Z27	X28	Y28	Z28	X29	Y29	Z29	X30	Y30	Z30	X31	Y31	Z31	X32	Y32	Z32	X33	Y33	Z33	X34	Y34	Z34	X35	Y35	Z35	X36	Y36	Z36	X37	Y37	Z37	X38	Y38	Z38	X39	Y39	Z39	X40	Y40	Z40	X41	Y41	Z41	X42	Y42	Z42	X43	Y43	Z43	X44	Y44	Z44	X45	Y45	Z45	X46	Y46	Z46	X47	Y47	Z47	X48	Y48	Z48	X49	Y49	Z49	X50	Y50	Z50	X51	Y51	Z51	X52	Y52	Z52	X53	Y53	Z53	X54	Y54	Z54	X55	Y55	Z55	

526	5.25000000	-197.39606	548.02756	-439.39863	-171.04074	451.92602	-446.49341	-274.27491	122.57170	-468.13819	-356.55734	74.11691	-516.22445	-166.25519	47.76958	-415.53495	-104.19627	74.08715	-475.49404	-194.28091	548.67755	-779.07670	-199.99401	459.73391	-803.42624	-259.40759	125.22477	-752.93554	-342.33996	74.48200	-701.74679	-148.25851	50.47556	-784.48516	-90.24632	76.03269	-720.36023	-187.17105	534.99924	-573.60729	-239.85775	134.00054	-557.69780	-182.88007	541.91703	-642.38094	-238.24524	130.43483	-656.75270	-200.24431	344.63836	-421.27914	-232.52435	476.61682	-409.15090	-276.69761	370.64759	-402.59235	-289.62606	471.80992	-796.07230	-291.94956	349.73796	-793.08045	-101.06072	867.90641	-420.54070	-107.40142	757.44512	-425.23576	-165.34463	734.20827	-401.48596	-215.35465	868.15313	-417.65010	-213.85524	753.34416	-421.55873	-92.17028	832.36816	-785.03843	-97.32673	691.88017	-773.70517	-201.62275	834.21319	-801.59954	-209.96909	697.64332	-797.11274	-89.80423	1084.92659	-466.49116	-266.19282	1093.96505	-545.98715	-75.75778	1088.25921	-718.32141	-261.81942	1092.37810	-654.65750	-250.64346	1630.83932	-598.77308	-175.12302	1574.15528	-430.80982	-195.56122	1574.99344	-771.91391	-118.68959	1560.03054	-571.72641	-121.50660	1557.23783	-629.18327	-153.43369	1418.42538	-360.89455	-213.47309	1211.03331	-389.48243	-205.62979	1235.25087	-309.70798	-138.08889	1080.47481	-264.09662	-89.54261	995.36702	-258.13415	-133.28337	997.57264	-241.40028	-208.67045	1448.86168	-851.01545	-220.09394	1209.11913	-809.56311	-221.06304	1229.02593	-887.24698	-175.85805	1177.41829	-925.95286	-107.54150	1014.05655	-960.10574	-147.25007	1003.61058	-965.14830	-161.84631	966.33846	-492.53085	-156.21044	974.34127	-699.26003	-144.66470	1004.48873	-503.07437	-137.97096	1002.05973	-669.40280	
527	5.26000000	-197.42243	548.02860	-439.48393	-171.06822	451.91432	-446.55240	-274.27750	122.57522	-468.17550	-356.55818	74.13396	-516.27433	-166.27264	47.71677	-415.58521	-104.18127	74.07689	-475.51006	-194.25899	548.62143	-779.06801	-199.98171	459.69293	-803.41027	-259.42133	125.18094	-752.92030	-342.33028	74.49370	-701.77171	-148.25559	50.45848	-784.49080	-90.21913	76.04909	-720.41359	-187.17786	535.00116	-573.61395	-239.85652	133.98183	-557.69616	-182.83581	541.96658	-642.38372	-238.26467	130.45275	-656.76235	-200.27168	344.69237	-421.23555	-232.60924	477.13297	-408.98188	-276.69856	370.69105	-402.59739	-289.62271	471.79412	-796.08226	-291.97676	349.65118	-792.98357	-101.12807	867.89733	-420.55932	-107.42256	757.37298	-425.35770	-165.39692	734.21841	-401.53778	-215.34844	868.11922	-417.71508	-213.90924	753.32472	-421.62599	-92.16646	832.36446	-785.04002	-97.31207	691.89263	-773.78128	-201.60962	834.19856	-801.64674	-209.97537	697.56813	-797.09367	-89.82139	1084.91646	-466.49592	-266.19431	1093.95605	-546.02342	-75.77396	1088.24427	-718.39595	-261.76466	1092.32530	-654.73377	-250.64038	1630.81751	-598.76767	-175.15996	1574.16318	-430.83193	-195.53953	1574.94923	-771.94989	-118.71709	1559.98470	-571.72492	-121.51061	1557.18228	-629.18557	-153.51217	1418.44473	-360.87783	-213.47439	1211.03264	-389.48226	-205.68258	1235.24570	-309.77035	-138.17018	1080.49792	-264.10713	-89.58625	995.32388	-258.15184	-133.36051	997.57446	-241.40317	-208.69709	1448.83393	-851.03323	-220.10323	1209.11342	-809.56228	-221.09779	1229.01548	-887.26370	-175.91219	1177.41191	-925.96737	-107.58973	1013.99408	-960.08174	-147.33610	1003.52002	-965.10730	-161.83861	966.32681	-492.56713	-156.18624	974.31221	-699.29653	-144.73213	1004.50044	-503.08952	-137.95303	1002.00468	-669.45954	
528	5.27000000	-197.45107	548.03625	-439.50223	-171.09954	451.88469	-446.58875	-274.28263	122.58091	-468.21526	-356.53289	74.15759	-516.29586	-166.27099	47.67285	-415.61893	-104.17451	74.09167	-475.52407	-194.22740	548.56923	-779.04856	-199.97389	459.68132	-803.41297	-259.47759	125.10152	-752.85694	-342.34861	74.47175	-701.74915	-148.25475	50.45262	-784.49256	-90.14638	76.09520	-720.36052	-187.18027	535.00270	-573.62100	-239.86029	133.96947	-557.71997	-182.89070	541.87732	-642.39087	-238.23688	130.51354	-656.71948	-200.29939	344.77515	-421.23053	-232.62217	477.17432	-408.91306	-276.71600	370.77140	-402.59812	-289.61640	471.79211	-796.08536	-292.01939	349.58866	-792.89268	-101.19024	867.91834	-420.60385	-107.45947	757.32039	-425.39958	-165.38109	734.20499	-401.56195	-215.27478	868.10537	-417.74176	-213.96956	753.30358	-421.69509	-92.16598	832.36296	-785.04695	-97.29798	691.88526	-773.78962	-201.59104	834.19587	-801.71713	-209.94112	697.58766	-797.16148	-89.82622	1084.93696	-466.50709	-266.20628	1093.95166	-546.03355	-75.78815	1088.24116	-718.44268	-261.70647	1092.29701	-654.84113	-250.65610	1630.81593	-598.78700	-175.19510	1574.14966	-430.86652	-195.52406	1574.91322	-771.96489	-118.74247	1559.96150	-571.70701	-121.53660	1557.15839	-629.19646	-153.57398	1418.45567	-360.86219	-213.52349	1211.05815	-389.50914	-205.74859	1235.22741	-309.82278	-138.23243	1080.47708	-264.12315	-89.65088	995.29199	-258.16389	-133.42556	997.56081	-241.40283	-208.71814	1448.81339	-851.02060	-220.11705	1209.11295	-809.56072	-221.14355	1228.99119	-887.25193	-175.94505	1177.39728	-925.97927	-107.64189	1013.97516	-960.08484	-147.42127	1003.47282	-965.09564	-161.82714	966.33712	-492.59469	-156.15318	974.29811	-699.32444	-144.78315	1004.51254	-503.12711	-137.90213	1001.98232	-669.51533	
529	5.28000000	-197.49710	548.04117	-439.49631	-171.10364	451.88570	-446.59350	-274.29972	122.55911	-468.21453	-356.52016	74.16490	-516.28704	-166.25107	47.68690	-415.61689	-104.16759	74.10828	-475.53385	-194.20278	548.55127	-779.03555	-199.96154	459.69076	-803.42027	-259.51608	125.06652	-752.82577	-342.33822	74.45787	-701.71485	-148.25734	50.45748	-784.48897	-90.15925	76.10486	-720.33543	-187.17716	535.00355	-573.63032	-239.86034	133.98640	-557.70577	-182.95821	541.76863	-642.39730	-238.24598	130.51732	-656.76186	-200.32797	344.89902	-421.26475	-232.63614	476.97705	-408.89330	-276.74604	370.81551	-402.58877	-289.60199	471.80088	-796.08904	-292.01066	349.62445	-792.95782	-101.23225	867.94966	-420.60340	-107.50893	757.35200	-425.34837	-165.34300	734.21322	-401.53777	-215.25157	868.10807	-417.72587	-213.99425	753.32309	-421.71020	-92.16788	832.36275	-785.05600	-97.28843	691.87802	-773.76912	-201.58698	834.19382	-801.74294	-209.90393	697.64537	-797.24250	-89.83678	1084.94962	-466.51299	-266.22864	1093.95119	-546.05359	-75.79789	1088.24827	-718.44698	-261.68926	1092.28245	-654.93479	-250.66275	1630.83711	-598.81418	-175.22631	1574.11490	-430.90929	-195.53264	1574.90506	-771.94651	-118.76605	1559.95853	-571.69170	-121.56757	1557.16333	-629.21488	-153.61194	1418.43460	-360.88292	-213.64894	1211.04407	-389.52978	-205.82059	1235.20573	-309.85898	-138.29529	1080.43361	-264.12277	-89.73482	995.29501	-258.15558	-133.48161	997.53776	-241.40337	-208.74946	1448.79320	-850.97027	-220.13625	1209.09294	-809.57079	-221.19371	1228.97644	-887.24959	-175.96620	1177.38872	-925.97516	-107.70372	1013.98630	-960.07827	-147.48935	1003.49086	-965.14045	-161.83866	966.34420	-492.61809	-156.13174	974.29622	-699.34725	-144.81851	1004.53107	-503.14387	-137.88209	1001.98154	-669.52819	
